<svg width="17" height="12" viewBox="0 0 17 12" fill="none" xmlns="http://www.w3.org/2000/svg">
<path d="M6.816 4.982C6.816 4.982 8.414 4.858 8.414 2.906C8.415 0.953 7.107 0 5.451 0H0V10.912H5.451C5.451 10.912 8.778 11.022 8.778 7.69C8.778 7.69 8.923 4.982 6.816 4.982ZM2.402 1.94H5.45C5.45 1.94 6.191 1.94 6.191 3.076C6.191 4.211 5.755 4.376 5.261 4.376H2.402V1.94ZM5.296 8.973H2.402V6.056H5.45C5.45 6.056 6.554 6.042 6.554 7.554C6.555 8.831 5.73 8.963 5.296 8.973ZM13.215 2.777C9.188 2.777 9.192 6.968 9.192 6.968C9.192 6.968 8.915 11.141 13.215 11.141C13.215 11.141 16.799 11.355 16.799 8.239H14.957C14.957 8.239 15.018 9.413 13.277 9.413C13.277 9.413 11.432 9.542 11.432 7.513H16.861C16.861 7.512 17.454 2.777 13.215 2.777ZM14.854 6.056H11.414C11.414 6.056 11.639 4.376 13.257 4.376C14.873 4.375 14.854 6.056 14.854 6.056ZM15.282 0.643H10.962V1.988H15.282V0.643Z" fill="black"/>
</svg>
