<svg width="17" height="17" viewBox="0 0 17 17" fill="none" xmlns="http://www.w3.org/2000/svg">
<path d="M7.924 5.985C6.696 3.802 5.383 2.023 5.286 1.893C3.306 2.83 1.828 4.654 1.367 6.852C1.553 6.856 4.513 6.891 7.924 5.985ZM8.808 8.371C8.901 8.341 8.995 8.313 9.088 8.287C8.91 7.883 8.715 7.479 8.511 7.079C4.855 8.174 1.344 8.095 1.22 8.091C1.218 8.166 1.215 8.241 1.215 8.317C1.215 10.143 1.905 11.807 3.037 13.066C3.036 13.064 3.033 13.059 3.033 13.059C3.033 13.059 4.976 9.611 8.808 8.371ZM3.951 13.916L3.952 13.912C3.9 13.871 3.844 13.834 3.792 13.79C3.886 13.866 3.951 13.916 3.951 13.916ZM6.615 1.421C6.608 1.423 6.603 1.424 6.596 1.425C6.607 1.423 6.615 1.422 6.615 1.421ZM13.007 2.986C11.757 1.884 10.115 1.214 8.317 1.214C7.739 1.214 7.18 1.284 6.644 1.414C6.752 1.557 8.084 3.328 9.299 5.557C11.976 4.554 12.988 3.016 13.007 2.986ZM8.316 16.633C3.724 16.633 0 12.909 0 8.316C0 3.723 3.724 0 8.316 0C12.908 0 16.632 3.724 16.632 8.316C16.632 12.908 12.909 16.633 8.316 16.633ZM9.524 9.479C5.356 10.931 3.98 13.854 3.952 13.913C5.157 14.855 6.669 15.421 8.316 15.421C9.299 15.421 10.237 15.219 11.088 14.858C10.983 14.236 10.57 12.06 9.571 9.465C9.556 9.469 9.541 9.474 9.524 9.479ZM9.844 6.616C10.011 6.954 10.169 7.299 10.317 7.646C10.37 7.768 10.421 7.891 10.47 8.012C12.923 7.704 15.339 8.227 15.417 8.245C15.4 6.559 14.798 5.015 13.802 3.805C13.787 3.827 12.648 5.471 9.844 6.616ZM10.902 9.135C11.835 11.697 12.214 13.783 12.285 14.207C13.879 13.13 15.014 11.424 15.33 9.443C15.188 9.398 13.199 8.767 10.902 9.135Z" fill="black"/>
</svg>
