<svg width="17" height="17" viewBox="0 0 17 17" fill="none" xmlns="http://www.w3.org/2000/svg">
<path d="M13.638 8.499C13.638 11.337 11.335 13.638 8.498 13.638C5.66 13.638 3.36 11.337 3.36 8.499C3.36 8.161 3.393 7.831 3.456 7.511H0V14.342C0 15.809 1.189 16.998 2.656 16.998H14.342C15.806 16.998 16.998 15.809 16.998 14.342V7.511H13.542C13.605 7.831 13.638 8.161 13.638 8.499ZM14.342 0H2.656C1.189 0 0 1.189 0 2.656V5.534H4.303C5.233 4.219 6.766 3.36 8.498 3.36C10.232 3.36 11.765 4.218 12.693 5.534H16.998V2.656C16.998 1.189 15.806 0 14.342 0ZM15.641 3.281C15.641 3.542 15.426 3.756 15.166 3.756H13.742C13.48 3.756 13.268 3.543 13.268 3.281V1.858C13.268 1.597 13.48 1.383 13.742 1.383H15.166C15.426 1.383 15.641 1.596 15.641 1.858V3.281ZM11.66 8.499C11.66 6.752 10.245 5.336 8.498 5.336C6.753 5.336 5.336 6.753 5.336 8.499C5.336 10.245 6.753 11.66 8.498 11.66C10.245 11.66 11.66 10.245 11.66 8.499Z" fill="black"/>
</svg>
