<svg width="17" height="17" viewBox="0 0 17 17" fill="none" xmlns="http://www.w3.org/2000/svg">
<path d="M3.85 1.817C3.85 2.821 3.109 3.634 1.889 3.634C0.741 3.635 0 2.822 0 1.817C0 0.789 0.765 0 1.937 0C3.108 0 3.826 0.789 3.85 1.817ZM0.096 16.762V5.069H3.73V16.761H0.096V16.762Z" fill="black"/>
<path d="M5.905 8.80001C5.905 7.34101 5.858 6.12201 5.81 5.07001H8.966L9.134 6.69601H9.205C9.683 5.93001 10.855 4.80701 12.815 4.80701C15.206 4.80601 17 6.40801 17 9.85201V16.762H13.365V10.282C13.365 8.77601 12.84 7.74801 11.524 7.74801C10.519 7.74801 9.922 8.44101 9.66 9.11101C9.563 9.35001 9.54 9.68501 9.54 10.019V16.762H5.905V8.80001Z" fill="black"/>
</svg>
