<svg width="18" height="15" viewBox="0 0 18 15" fill="none" xmlns="http://www.w3.org/2000/svg">
<path d="M18 1.731C17.337 2.024 16.626 2.223 15.879 2.312C16.641 1.855 17.227 1.131 17.502 0.27C16.79 0.693 15.999 1 15.158 1.165C14.484 0.448 13.523 0 12.462 0C10.423 0 8.76898 1.652 8.76898 3.692C8.76898 3.981 8.80098 4.263 8.86498 4.534C5.79498 4.379 3.07398 2.909 1.25298 0.676C0.934977 1.221 0.752977 1.856 0.752977 2.531C0.752977 3.813 1.40498 4.943 2.39598 5.605C1.79098 5.586 1.22098 5.42 0.722977 5.144C0.722977 5.159 0.722977 5.174 0.722977 5.19C0.722977 6.979 1.99598 8.473 3.68498 8.811C3.37498 8.895 3.04898 8.94 2.71198 8.94C2.47498 8.94 2.24298 8.919 2.01798 8.875C2.48698 10.343 3.85198 11.41 5.46698 11.44C4.20398 12.43 2.61198 13.02 0.881977 13.02C0.582977 13.02 0.289977 13.002 0.000976562 12.967C1.63498 14.016 3.57598 14.626 5.66198 14.626C12.454 14.626 16.169 8.999 16.169 4.12C16.169 3.959 16.165 3.799 16.157 3.641C16.878 3.123 17.505 2.472 18 1.731Z" fill="black"/>
</svg>
