<svg width="93" height="25" viewBox="0 0 93 25" fill="none" xmlns="http://www.w3.org/2000/svg">
<path d="M6.05392 25L0.819138 15.4515L6.05392 5.90204L11.7278 2.78111L19.1809 15.4515L13.5148 25H6.05392Z" fill="#C7AA8B"/>
<path d="M37.3047 13.6875C37.3047 13.2891 37.2578 12.9375 37.1641 12.6328C37.0703 12.3203 36.9062 12.0391 36.6719 11.7891C36.4375 11.5391 36.1094 11.3008 35.6875 11.0742C35.2656 10.8477 34.7305 10.6172 34.082 10.3828C33.3789 10.1328 32.7422 9.85547 32.1719 9.55078C31.6016 9.23828 31.1133 8.88281 30.707 8.48438C30.3086 8.08594 30 7.62891 29.7812 7.11328C29.5625 6.59766 29.4531 6.00781 29.4531 5.34375C29.4531 4.67969 29.5664 4.06641 29.793 3.50391C30.0273 2.94141 30.3555 2.45312 30.7773 2.03906C31.207 1.61719 31.7227 1.28906 32.3242 1.05469C32.9258 0.820312 33.5977 0.703125 34.3398 0.703125C35.4492 0.703125 36.3828 0.949219 37.1406 1.44141C37.9062 1.92578 38.4844 2.5625 38.875 3.35156C39.2656 4.13281 39.4609 4.96875 39.4609 5.85938H37.3047C37.3047 5.21875 37.1992 4.65234 36.9883 4.16016C36.7852 3.66016 36.4648 3.26953 36.0273 2.98828C35.5977 2.69922 35.0352 2.55469 34.3398 2.55469C33.7148 2.55469 33.1992 2.67578 32.793 2.91797C32.3945 3.16016 32.0977 3.48828 31.9023 3.90234C31.7148 4.31641 31.6211 4.78906 31.6211 5.32031C31.6211 5.67969 31.6836 6.00781 31.8086 6.30469C31.9336 6.59375 32.125 6.86328 32.3828 7.11328C32.6484 7.36328 32.9766 7.59375 33.3672 7.80469C33.7656 8.01562 34.2344 8.21875 34.7734 8.41406C35.6094 8.6875 36.3242 8.99219 36.918 9.32812C37.5117 9.66406 37.9961 10.043 38.3711 10.4648C38.7461 10.8789 39.0195 11.3516 39.1914 11.8828C39.3711 12.4062 39.4609 13 39.4609 13.6641C39.4609 14.3594 39.3438 14.9883 39.1094 15.5508C38.8828 16.1133 38.5508 16.5938 38.1133 16.9922C37.6758 17.3906 37.1484 17.6992 36.5312 17.918C35.9141 18.1289 35.2188 18.2344 34.4453 18.2344C33.7734 18.2344 33.1133 18.125 32.4648 17.9062C31.8242 17.6875 31.2422 17.3594 30.7188 16.9219C30.1953 16.4844 29.7773 15.9453 29.4648 15.3047C29.1523 14.6562 28.9961 13.9062 28.9961 13.0547H31.1523C31.1523 13.6406 31.2383 14.1445 31.4102 14.5664C31.582 14.9805 31.8203 15.3242 32.125 15.5977C32.4297 15.8711 32.7773 16.0742 33.168 16.207C33.5664 16.332 33.9922 16.3945 34.4453 16.3945C35.0703 16.3945 35.5938 16.2852 36.0156 16.0664C36.4453 15.8477 36.7656 15.5352 36.9766 15.1289C37.1953 14.7227 37.3047 14.2422 37.3047 13.6875ZM47.7695 0.9375V18H45.6367V0.9375H47.7695ZM52.2578 0.9375V2.78906H41.1602V0.9375H52.2578ZM65.5469 7.99219V10.957C65.5469 12.1602 65.4141 13.2188 65.1484 14.1328C64.8906 15.0391 64.5117 15.7969 64.0117 16.4062C63.5117 17.0156 62.9102 17.4727 62.207 17.7773C61.5039 18.082 60.7109 18.2344 59.8281 18.2344C58.9766 18.2344 58.1992 18.082 57.4961 17.7773C56.793 17.4727 56.1875 17.0156 55.6797 16.4062C55.1719 15.7969 54.7773 15.0391 54.4961 14.1328C54.2227 13.2188 54.0859 12.1602 54.0859 10.957V7.99219C54.0859 6.78906 54.2227 5.73437 54.4961 4.82812C54.7695 3.91406 55.1602 3.15234 55.668 2.54297C56.1758 1.93359 56.7812 1.47656 57.4844 1.17188C58.1875 0.859375 58.9648 0.703125 59.8164 0.703125C60.6992 0.703125 61.4922 0.859375 62.1953 1.17188C62.9062 1.47656 63.5078 1.93359 64 2.54297C64.5 3.15234 64.8828 3.91406 65.1484 4.82812C65.4141 5.73437 65.5469 6.78906 65.5469 7.99219ZM63.4141 10.957V7.96875C63.4141 7.03125 63.3359 6.22656 63.1797 5.55469C63.0234 4.875 62.793 4.32031 62.4883 3.89062C62.1836 3.46094 61.8086 3.14453 61.3633 2.94141C60.918 2.73047 60.4023 2.625 59.8164 2.625C59.2617 2.625 58.7617 2.73047 58.3164 2.94141C57.8789 3.14453 57.5039 3.46094 57.1914 3.89062C56.8789 4.32031 56.6367 4.875 56.4648 5.55469C56.3008 6.22656 56.2188 7.03125 56.2188 7.96875V10.957C56.2188 11.9023 56.3008 12.7148 56.4648 13.3945C56.6367 14.0664 56.8789 14.6211 57.1914 15.0586C57.5117 15.4883 57.8945 15.8086 58.3398 16.0195C58.7852 16.2227 59.2812 16.3242 59.8281 16.3242C60.4141 16.3242 60.9297 16.2227 61.375 16.0195C61.8281 15.8086 62.2031 15.4883 62.5 15.0586C62.8047 14.6211 63.0312 14.0664 63.1797 13.3945C63.3359 12.7148 63.4141 11.9023 63.4141 10.957ZM80.043 0.9375V18H77.875L71.043 4.83984V18H68.8867V0.9375H71.043L77.9102 14.1328V0.9375H80.043ZM92.9453 16.1602V18H85.5391V16.1602H92.9453ZM85.9258 0.9375V18H83.7695V0.9375H85.9258ZM91.9492 8.27344V10.1133H85.5391V8.27344H91.9492ZM92.8281 0.9375V2.78906H85.5391V0.9375H92.8281Z" fill="#EDEDED"/>
</svg>
