<svg width="16" height="14" viewBox="0 0 16 14" fill="none" xmlns="http://www.w3.org/2000/svg">
<path d="M16 2.31645C15.4106 2.57689 14.7786 2.75378 14.1146 2.83289C14.792 2.42667 15.312 1.78311 15.5573 1.01778C14.9244 1.39378 14.2213 1.66667 13.4737 1.81333C12.8746 1.176 12.0213 0.777779 11.0773 0.777779C9.26485 0.777779 7.79463 2.24622 7.79463 4.05956C7.79463 4.31645 7.82308 4.56711 7.87996 4.808C5.15108 4.67022 2.73241 3.36356 1.11374 1.37867C0.831077 1.86311 0.669299 2.42756 0.669299 3.02756C0.669299 4.16711 1.24885 5.17156 2.12974 5.76C1.59197 5.74311 1.0853 5.59556 0.642632 5.35022C0.642632 5.36356 0.642632 5.37689 0.642632 5.39111C0.642632 6.98133 1.77419 8.30845 3.27552 8.60978C2.99997 8.68445 2.71019 8.72444 2.41063 8.72444C2.19997 8.72444 1.99374 8.70489 1.79374 8.66578C2.21063 9.97067 3.42397 10.9191 4.85952 10.9458C3.73685 11.8267 2.32174 12.3511 0.783966 12.3511C0.518188 12.3511 0.257743 12.3351 0.000854492 12.304C1.4533 13.2356 3.17863 13.7787 5.03285 13.7787C11.0702 13.7787 14.3724 8.77689 14.3724 4.44C14.3724 4.29689 14.3689 4.15467 14.3617 4.01422C15.0026 3.55378 15.56 2.97511 16 2.31645Z" fill="white"/>
</svg>
